<?xml version="1.0" encoding="UTF-8" standalone="no"?>
<!-- Generator: Adobe Illustrator 14.0.0, SVG Export Plug-In . SVG Version: 6.00 Build 43363)  -->

<svg
   xmlns:dc="http://purl.org/dc/elements/1.1/"
   xmlns:cc="http://creativecommons.org/ns#"
   xmlns:rdf="http://www.w3.org/1999/02/22-rdf-syntax-ns#"
   xmlns:svg="http://www.w3.org/2000/svg"
   xmlns="http://www.w3.org/2000/svg"
   xmlns:sodipodi="http://sodipodi.sourceforge.net/DTD/sodipodi-0.dtd"
   xmlns:inkscape="http://www.inkscape.org/namespaces/inkscape"
   version="1.1"
   id="Layer_1"
   x="0px"
   y="0px"
   width="288px"
   height="288px"
   viewBox="0 0 288 288"
   enable-background="new 0 0 288 288"
   xml:space="preserve"
   inkscape:version="0.48.4 r9939"
   sodipodi:docname="podcast-mozilla-br-01.svg"><metadata
     id="metadata47"><rdf:RDF><cc:Work
         rdf:about=""><dc:format>image/svg+xml</dc:format><dc:type
           rdf:resource="http://purl.org/dc/dcmitype/StillImage" /><dc:title></dc:title></cc:Work></rdf:RDF></metadata><defs
     id="defs45" /><sodipodi:namedview
     pagecolor="#ffffff"
     bordercolor="#666666"
     borderopacity="1"
     objecttolerance="10"
     gridtolerance="10"
     guidetolerance="10"
     inkscape:pageopacity="0"
     inkscape:pageshadow="2"
     inkscape:window-width="1317"
     inkscape:window-height="744"
     id="namedview43"
     showgrid="false"
     inkscape:zoom="1.6388889"
     inkscape:cx="118.8308"
     inkscape:cy="168.40678"
     inkscape:window-x="49"
     inkscape:window-y="24"
     inkscape:window-maximized="1"
     inkscape:current-layer="Layer_1" /><path
     inkscape:connector-curvature="0"
     d="m 216.858,118.486 c -1.783,-5.349 -1.275,-14.475 -2.189,-15.791 -5.943,-8.158 -27.619,-9.598 -37.359,-20.342 1.711,-5.285 -1.768,-9.676 -5.322,-13.017 -5.342,-3.893 -12.766,-2.174 -18.496,-0.618 -6.502,-1.378 -12.52,-3.7 -18.846,-5.556 -14.094,-1.54 -28.068,8.412 -28.068,8.412 C 96.52,77.96 80.734,91.207 73.18,98.939 c 1.85,0.268 3.818,-1.127 5.904,-1.381 L 93.535,93.81 c -6.027,4.974 -18.694,13.72 -22.393,20.66 4.514,-1.547 14,-6.784 18.698,-7.181 -4.129,3.642 -12.732,10.543 -15.448,14.953 0.321,0.159 0.094,0.542 0.143,0.812 3.541,-1.949 12.151,-7.051 16.044,-7.372 -4.036,4.182 -11.453,12.235 -13.106,17.655 3.495,-2.285 12.274,-6.907 16.108,-8.301 -0.888,2.137 -2.833,3.713 -4.104,5.848 -1.758,2.953 -5.881,6.297 -6.066,9.819 3.07,-2.854 6.868,-5.354 10.683,-7.352 -1.722,3.547 -4.854,6.471 -5.734,10.702 2.509,-2.42 7.233,-3.658 10.446,-4.764 l -0.387,0.375 c -0.275,0.227 -3.912,2.793 -6.387,5.666 2.186,-0.123 0.559,-0.4 3.352,0.24 l 1.514,0.08 c -0.752,0.395 -1.578,0.83 -2.449,1.291 l 0,0 c -1.348,0.715 -2.8,1.494 -4.269,2.297 6.003,7.668 13.46,13.82 22.019,17.992 11.15,5.439 23.305,7.217 35.471,5.83 -0.146,-0.715 -0.307,-1.428 -0.492,-2.133 l 0,0 c 0,-0.002 0,-0.006 -0.002,-0.012 -0.225,-0.861 -0.484,-1.713 -0.789,-2.551 l 0,0 c -0.018,-0.045 -0.029,-0.092 -0.049,-0.137 4.162,-7.729 1.975,-20.973 12.627,-26.285 7.172,-3.655 7.986,-5.668 16.227,-4.096 4.451,0.848 14.172,4.208 18.848,3.204 4.244,-2.352 6.377,-3.432 10.043,-6.165 4.584,0.832 6.068,0.367 7.754,-2.062 -1.525,2.119 2.971,-8.291 4.871,-12.213 l 0.15,-2.124 z"
     id="path5"
     style="fill:#000000" /><text
     xml:space="preserve"
     style="font-size:40px;font-style:normal;font-weight:normal;line-height:125%;letter-spacing:0px;word-spacing:0px;fill:#000000;fill-opacity:1;stroke:none;font-family:Sans"
     x="69.526566"
     y="227.59631"
     id="text2993"
     sodipodi:linespacing="125%"><tspan
       sodipodi:role="line"
       id="tspan2995"
       x="69.526566"
       y="227.59631"
       style="font-style:normal;font-variant:normal;font-weight:bold;font-stretch:normal;font-family:Fira Sans;-inkscape-font-specification:Fira Sans Bold">Podcast</tspan></text>
<path
     style="fill:#000000;fill-opacity:1;stroke:#ffffff;stroke-opacity:1;stroke-width:3.3;stroke-miterlimit:4;stroke-dasharray:none"
     d="m 110.81108,57.008719 c -0.84383,0.217992 -1.34001,1.059819 -1.12202,1.903654 l 1.57892,6.111848 c 0.21799,0.843836 1.06764,1.370261 1.91147,1.152269 l 0.24205,-0.06253 4.87745,18.880162 c 0.25619,0.991683 1.09218,1.666624 2.04536,1.795476 l 1.94629,7.533911 c -3.44368,1.21973 -5.42836,4.84936 -4.49662,8.456011 l 4.15051,16.06629 c 0.98535,3.81417 4.82843,6.07928 8.6426,5.09394 l 7.65493,-1.97755 c 3.81418,-0.98535 6.10954,-4.83624 5.1242,-8.65041 L 139.2157,97.245499 c -0.93173,-3.60666 -4.45633,-5.81304 -8.0599,-5.2122 l -1.94629,-7.533911 c 0.77236,-0.57425 1.17613,-1.56925 0.9198,-2.561485 l -4.87745,-18.880163 0.24206,-0.06253 c 0.84383,-0.217994 1.33219,-1.090075 1.11419,-1.933911 l -1.57891,-6.111847 c -0.218,-0.843836 -1.05982,-1.340007 -1.90366,-1.122013 l -12.31446,3.181282 z"
     id="rect3800"
     inkscape:connector-curvature="0" /></svg>