<?xml version="1.0" encoding="UTF-8" standalone="no"?>
<!-- Generator: Adobe Illustrator 14.0.0, SVG Export Plug-In . SVG Version: 6.00 Build 43363)  -->

<svg
   xmlns:dc="http://purl.org/dc/elements/1.1/"
   xmlns:cc="http://creativecommons.org/ns#"
   xmlns:rdf="http://www.w3.org/1999/02/22-rdf-syntax-ns#"
   xmlns:svg="http://www.w3.org/2000/svg"
   xmlns="http://www.w3.org/2000/svg"
   xmlns:sodipodi="http://sodipodi.sourceforge.net/DTD/sodipodi-0.dtd"
   xmlns:inkscape="http://www.inkscape.org/namespaces/inkscape"
   version="1.1"
   id="Layer_1"
   x="0px"
   y="0px"
   width="288px"
   height="288px"
   viewBox="0 0 288 288"
   enable-background="new 0 0 288 288"
   xml:space="preserve"
   inkscape:version="0.48.4 r9939"
   sodipodi:docname="podcast-mozilla-br-01.svg"><metadata
     id="metadata47"><rdf:RDF><cc:Work
         rdf:about=""><dc:format>image/svg+xml</dc:format><dc:type
           rdf:resource="http://purl.org/dc/dcmitype/StillImage" /><dc:title /></cc:Work></rdf:RDF></metadata><defs
     id="defs45" /><sodipodi:namedview
     pagecolor="#ffffff"
     bordercolor="#666666"
     borderopacity="1"
     objecttolerance="10"
     gridtolerance="10"
     guidetolerance="10"
     inkscape:pageopacity="0"
     inkscape:pageshadow="2"
     inkscape:window-width="1317"
     inkscape:window-height="744"
     id="namedview43"
     showgrid="false"
     inkscape:zoom="1.6388889"
     inkscape:cx="75.050848"
     inkscape:cy="144"
     inkscape:window-x="49"
     inkscape:window-y="24"
     inkscape:window-maximized="1"
     inkscape:current-layer="Layer_1" /><g
     id="g3786"
     transform="translate(0.268,0)"><path
       style="fill:#000000"
       id="path5"
       d="m 216.59,118.486 c -1.783,-5.349 -1.275,-14.475 -2.189,-15.791 -5.943,-8.158 -27.619,-9.598 -37.359,-20.342 1.711,-5.285 -1.768,-9.676 -5.322,-13.017 -5.342,-3.893 -12.766,-2.174 -18.496,-0.618 -6.502,-1.378 -12.52,-3.7 -18.846,-5.556 -14.094,-1.54 -28.068,8.412 -28.068,8.412 -10.058,6.386 -25.844,19.633 -33.398,27.365 1.85,0.268 3.818,-1.127 5.904,-1.381 L 93.267,93.81 c -6.027,4.974 -18.694,13.72 -22.393,20.66 4.514,-1.547 14,-6.784 18.698,-7.181 -4.129,3.642 -12.732,10.543 -15.448,14.953 0.321,0.159 0.094,0.542 0.143,0.812 3.541,-1.949 12.151,-7.051 16.044,-7.372 -4.036,4.182 -11.453,12.235 -13.106,17.655 3.495,-2.285 12.274,-6.907 16.108,-8.301 -0.888,2.137 -2.833,3.713 -4.104,5.848 -1.758,2.953 -5.881,6.297 -6.066,9.819 3.07,-2.854 6.868,-5.354 10.683,-7.352 -1.722,3.547 -4.854,6.471 -5.734,10.702 2.509,-2.42 7.233,-3.658 10.446,-4.764 l -0.387,0.375 c -0.275,0.227 -3.912,2.793 -6.387,5.666 2.186,-0.123 0.559,-0.4 3.352,0.24 l 1.514,0.08 c -0.752,0.395 -1.578,0.83 -2.449,1.291 l 0,0 c -1.348,0.715 -2.8,1.494 -4.269,2.297 6.003,7.668 13.46,13.82 22.019,17.992 11.15,5.439 23.305,7.217 35.471,5.83 -0.146,-0.715 -0.307,-1.428 -0.492,-2.133 l 0,0 c 0,-0.002 0,-0.006 -0.002,-0.012 -0.225,-0.861 -0.484,-1.713 -0.789,-2.551 l 0,0 c -0.018,-0.045 -0.029,-0.092 -0.049,-0.137 4.162,-7.729 1.975,-20.973 12.627,-26.285 7.172,-3.655 7.986,-5.668 16.227,-4.096 4.451,0.848 14.172,4.208 18.848,3.204 4.244,-2.352 6.377,-3.432 10.043,-6.165 4.584,0.832 6.068,0.367 7.754,-2.062 -1.525,2.119 2.971,-8.291 4.871,-12.213 l 0.15,-2.124 z"
       inkscape:connector-curvature="0" /><g
       transform="matrix(0.88788581,-0.46006391,0.46006391,0.88788581,-54.539695,65.128389)"
       id="g3032"><path
         sodipodi:type="arc"
         style="fill:#ffffff;fill-opacity:1;stroke:none"
         id="path3026"
         sodipodi:cx="128.13559"
         sodipodi:cy="109.22034"
         sodipodi:rx="8.5423727"
         sodipodi:ry="8.5423727"
         d="m 136.67796,109.22034 c 0,4.71782 -3.82455,8.54237 -8.54237,8.54237 -4.71782,0 -8.54237,-3.82455 -8.54237,-8.54237 0,-4.71783 3.82455,-8.54238 8.54237,-8.54238 4.71782,0 8.54237,3.82455 8.54237,8.54238 z"
         transform="translate(15.86441,0)" /><rect
         style="fill:#ffffff;fill-opacity:1;stroke:none"
         id="rect3028"
         width="3.2033899"
         height="10.677966"
         x="142.3983"
         y="115.77966"
         ry="0.45762712" /><rect
         y="124.18644"
         x="143.00847"
         height="5.4915252"
         width="1.9830509"
         id="rect3030"
         style="fill:#ffffff;fill-opacity:1;stroke:none" /></g><path
       sodipodi:nodetypes="cszc"
       inkscape:connector-curvature="0"
       id="path3037"
       d="m 132.40678,112.88136 c 0,0 1.93608,3.34759 4.58208,7.9197 2.64601,4.5721 13.91707,14.23673 7.01114,25.33454 -6.90593,11.09781 -27.96073,1.36434 -28.67796,22.88135"
       style="fill:none;stroke:#ffffff;stroke-width:1px;stroke-linecap:butt;stroke-linejoin:miter;stroke-opacity:1" /></g><text
     xml:space="preserve"
     style="font-size:40px;font-style:normal;font-weight:normal;line-height:125%;letter-spacing:0px;word-spacing:0px;fill:#000000;fill-opacity:1;stroke:none;font-family:Sans"
     x="69.526566"
     y="227.59631"
     id="text2993"
     sodipodi:linespacing="125%"><tspan
       sodipodi:role="line"
       id="tspan2995"
       x="69.526566"
       y="227.59631"
       style="font-style:normal;font-variant:normal;font-weight:bold;font-stretch:normal;font-family:Fira Sans;-inkscape-font-specification:Fira Sans Bold">Podcast</tspan></text>
</svg>